<svg id="Layer_1" data-name="Layer 1" xmlns="http://www.w3.org/2000/svg" viewBox="0 0 186.61 252.8"><defs><style>.cls-1{fill:#fff;stroke:#fff;stroke-miterlimit:10;stroke-width:0.25px;}</style></defs><title>icon-community2</title><path id="path5" class="cls-1" d="M94.85,197s-9.65,5.61,6.87,7.51c20,2.28,30.25,2,52.3-2.22a91,91,0,0,0,13.9,6.79C118.47,230.32,56,207.9,94.85,197" transform="translate(-34.73 -1.62)"/><path id="path7" class="cls-1" d="M88.81,169.39s-10.83,8,5.71,9.72c21.38,2.21,38.27,2.39,67.49-3.24a30,30,0,0,0,10.4,6.34C112.61,199.7,46,183.59,88.81,169.39" transform="translate(-34.73 -1.62)"/><path id="path9" class="cls-1" d="M139.75,122.48c12.18,14-3.2,26.65-3.2,26.65s30.94-16,16.73-36C140,94.51,129.83,85.25,184.92,53.3c0,0-86.47,21.6-45.17,69.19" transform="translate(-34.73 -1.62)"/><path id="path11" class="cls-1" d="M205.15,217.5s7.14,5.89-7.87,10.44c-28.54,8.65-118.79,11.26-143.87.34-9-3.92,7.89-9.36,13.21-10.5a34.28,34.28,0,0,1,8.71-1c-10-7.06-64.78,13.86-27.82,19.86C148.33,253,231.3,229.3,205.15,217.5" transform="translate(-34.73 -1.62)"/><path id="path13" class="cls-1" d="M99.49,140.74s-45.91,10.9-16.26,14.86c12.52,1.68,37.48,1.3,60.72-.65,19-1.6,38.08-5,38.08-5a80.59,80.59,0,0,0-11.55,6.18c-46.62,12.26-136.68,6.56-110.75-6,21.93-10.6,39.75-9.4,39.75-9.4" transform="translate(-34.73 -1.62)"/><path id="path15" class="cls-1" d="M181.85,186.77c47.39-24.63,25.48-48.29,10.18-45.1a35.47,35.47,0,0,0-5.42,1.46,8.64,8.64,0,0,1,4-3.12c30.26-10.64,53.52,31.37-9.77,48a4.12,4.12,0,0,0,1-1.24" transform="translate(-34.73 -1.62)"/><path id="path17" class="cls-1" d="M153.27,1.7S179.52,28,128.38,68.33c-41,32.39-9.35,50.85,0,71.95-23.94-21.6-41.5-40.61-29.72-58.3,17.3-26,65.22-38.57,54.63-80.27" transform="translate(-34.73 -1.62)"/><path id="path19" class="cls-1" d="M104.15,253.5c45.49,2.91,115.34-1.62,117-23.14,0,0-3.18,8.16-37.59,14.64-38.83,7.31-86.71,6.45-115.11,1.77,0,0,5.81,4.81,35.71,6.73" transform="translate(-34.73 -1.62)"/></svg>