<?xml version="1.0" encoding="utf-8"?>
<!-- Generator: Adobe Illustrator 21.0.0, SVG Export Plug-In . SVG Version: 6.00 Build 0)  -->
<svg version="1.1"
	 id="Layer_1" inkscape:version="0.92.2 (5c3e80d, 2017-08-06)" sodipodi:docname="Java (Print).svg" xmlns:cc="http://creativecommons.org/ns#" xmlns:dc="http://purl.org/dc/elements/1.1/" xmlns:inkscape="http://www.inkscape.org/namespaces/inkscape" xmlns:rdf="http://www.w3.org/1999/02/22-rdf-syntax-ns#" xmlns:sodipodi="http://sodipodi.sourceforge.net/DTD/sodipodi-0.dtd" xmlns:svg="http://www.w3.org/2000/svg"
	 xmlns="http://www.w3.org/2000/svg" xmlns:xlink="http://www.w3.org/1999/xlink" x="0px" y="0px" viewBox="0 0 1000 1859.9"
	 style="enable-background:new 0 0 1000 1859.9;" xml:space="preserve">
<sodipodi:namedview  bordercolor="#666666" borderopacity="1" gridtolerance="10" guidetolerance="10" id="namedview29" inkscape:current-layer="Layer_1" inkscape:cx="959.81501" inkscape:cy="796.51235" inkscape:pageopacity="0" inkscape:pageshadow="2" inkscape:window-height="705" inkscape:window-maximized="1" inkscape:window-width="1366" inkscape:window-x="-8" inkscape:window-y="-8" inkscape:zoom="0.21454545" objecttolerance="10" pagecolor="#ffffff" showgrid="false">
	</sodipodi:namedview>
<path id="path5" inkscape:connector-curvature="0" d="M330.6,986.6c0,0-48.8,28.4,34.7,37.9c101.1,11.5,152.8,9.9,264.2-11.2
	c0,0,29.3,18.4,70.2,34.3C449.9,1154.6,134.5,1041.4,330.6,986.6"/>
<path id="path7" inkscape:connector-curvature="0" d="M300.1,846.9c0,0-54.7,40.5,28.8,49.1c108,11.1,193.3,12.1,340.8-16.4
	c0,0,20.4,20.7,52.5,32C420.3,1000,84,918.6,300.1,846.9"/>
<path id="path9" inkscape:connector-curvature="0" d="M557.4,610c61.5,70.8-16.2,134.6-16.2,134.6s156.2-80.7,84.5-181.7
	c-67-94.2-118.4-141,159.8-302.4C785.5,260.6,348.8,369.6,557.4,610"/>
<path id="path11" inkscape:connector-curvature="0" d="M887.7,1089.9c0,0,36.1,29.7-39.7,52.7c-144.2,43.7-600,56.9-726.6,1.7
	c-45.5-19.8,39.8-47.3,66.7-53c28-6.1,44-4.9,44-4.9c-50.6-35.7-327.2,70-140.5,100.3C600.7,1269.2,1019.7,1149.5,887.7,1089.9"/>
<path id="path13" inkscape:connector-curvature="0" d="M354.1,702.2c0,0-231.9,55.1-82.1,75.1c63.2,8.5,189.3,6.6,306.7-3.3
	c96-8.1,192.3-25.3,192.3-25.3s-33.8,14.5-58.3,31.2C477.2,841.8,22.3,813,153.3,749.7C264,696.1,354.1,702.2,354.1,702.2"/>
<path id="path15" inkscape:connector-curvature="0" d="M770,934.7c239.3-124.4,128.7-243.9,51.4-227.8c-18.9,3.9-27.4,7.4-27.4,7.4
	s7-11,20.5-15.8c152.8-53.7,270.3,158.4-49.3,242.5C765.2,941,768.9,937.6,770,934.7"/>
<path id="path17" inkscape:connector-curvature="0" d="M625.7,0c0,0,132.6,132.6-125.7,336.5c-207.1,163.6-47.2,256.8-0.1,363.4
	C379,590.8,290.3,494.8,349.8,405.4C437.2,274.2,679.2,210.6,625.7,0"/>
<path id="path19" inkscape:connector-curvature="0" d="M377.6,1271.7c229.7,14.7,582.5-8.2,590.9-116.9c0,0-16.1,41.2-189.9,73.9
	c-196.1,36.9-437.9,32.6-581.4,8.9C197.2,1237.7,226.6,1262,377.6,1271.7"/>
</svg>
