<?xml version="1.0" encoding="utf-8"?>
<!-- Generator: Adobe Illustrator 21.0.0, SVG Export Plug-In . SVG Version: 6.00 Build 0)  -->
<svg version="1.1" id="Layer_1" xmlns="http://www.w3.org/2000/svg" xmlns:xlink="http://www.w3.org/1999/xlink" x="0px" y="0px"
	 viewBox="0 0 500 467" style="enable-background:new 0 0 500 467;" xml:space="preserve">
<style type="text/css">
	.st0{fill:url(#SVGID_1_);}
</style>
<linearGradient id="SVGID_1_" gradientUnits="userSpaceOnUse" x1="107.2481" y1="203.8208" x2="423.5691" y2="-71.1528" gradientTransform="matrix(1 0 0 -1 0 468)">
	<stop  offset="0" style="stop-color:#CCE0F4"/>
	<stop  offset="6.405090e-02" style="stop-color:#C3DCF2"/>
	<stop  offset="0.1706" style="stop-color:#A9D2EE"/>
	<stop  offset="0.3066" style="stop-color:#80C2E7"/>
	<stop  offset="0.4649" style="stop-color:#47ACDE"/>
	<stop  offset="0.5674" style="stop-color:#1E9CD7"/>
	<stop  offset="0.8652" style="stop-color:#0075BE"/>
	<stop  offset="0.9944" style="stop-color:#005B97"/>
</linearGradient>
<path class="st0" d="M401.7,369.9c-1-1-1-2.6,0-3.6l5.1-5.1c1-1,2.6-1,3.6,0c1,1,1,2.6,0,3.6l-3.3,3.3l8.3,8.3c1,1,1,2.6,0,3.6
	l-5.1,5.1c-0.5,0.5-1.1,0.7-1.8,0.7s-1.3-0.2-1.8-0.7c-1-1-1-2.6,0-3.6l3.3-3.3L401.7,369.9z M427.7,378.2l-3.3,3.3
	c-1,1-1,2.6,0,3.6c0.5,0.5,1.1,0.7,1.8,0.7s1.3-0.2,1.8-0.7l5.1-5.1c1-1,1-2.6,0-3.6l-8.3-8.3l3.3-3.3c1-1,1-2.6,0-3.6
	c-1-1-2.6-1-3.6,0l-5.1,5.1c-1,1-1,2.6,0,3.6L427.7,378.2z M445.4,378.2l-3.3,3.3c-1,1-1,2.6,0,3.6c0.5,0.5,1.1,0.7,1.8,0.7
	s1.3-0.2,1.8-0.7l5.1-5.1c1-1,1-2.6,0-3.6l-8.3-8.3l3.3-3.3c1-1,1-2.6,0-3.6c-1-1-2.6-1-3.6,0l-5.1,5.1c-1,1-1,2.6,0,3.6
	L445.4,378.2z M236.6,416.1v-7.6c0-0.8,0.4-1.6,1.1-2.1l7.6-5.1c0.9-0.6,2-0.6,2.8,0l7.6,5.1c0.7,0.5,1.1,1.3,1.1,2.1v7.6
	c0,0.8-0.4,1.6-1.1,2.1l-7.6,5.1c-0.4,0.3-0.9,0.4-1.4,0.4c-0.5,0-1-0.1-1.4-0.4l-7.6-5.1C237,417.8,236.6,417,236.6,416.1z
	 M241.6,414.8l5.1,3.4l5.1-3.4v-4.9l-5.1-3.4l-5.1,3.4V414.8z M63.5,366c-1.2-0.8-2.7-0.5-3.5,0.7l-5.1,7.6c-0.6,0.8-0.6,2,0,2.8
	l4.1,6.2l-4.1,6.2c-0.6,0.8-0.6,2,0,2.8l4.1,6.2l-4.1,6.2c-0.8,1.2-0.5,2.7,0.7,3.5c0.4,0.3,0.9,0.4,1.4,0.4c0.8,0,1.6-0.4,2.1-1.1
	l5.1-7.6c0.6-0.8,0.6-2,0-2.8l-4.1-6.2l4.1-6.2c0.6-0.8,0.6-2,0-2.8l-4.1-6.2l4.1-6.2C65,368.3,64.7,366.7,63.5,366z M78.7,366
	c-1.2-0.8-2.7-0.5-3.5,0.7l-5.1,7.6c-0.6,0.8-0.6,2,0,2.8l4.1,6.2l-4.1,6.2c-0.6,0.8-0.6,2,0,2.8l4.1,6.2l-4.1,6.2
	c-0.8,1.2-0.5,2.7,0.7,3.5c0.4,0.3,0.9,0.4,1.4,0.4c0.8,0,1.6-0.4,2.1-1.1l5.1-7.6c0.6-0.8,0.6-2,0-2.8l-4.1-6.2l4.1-6.2
	c0.6-0.8,0.6-2,0-2.8l-4.1-6.2l4.1-6.2C80.2,368.3,79.8,366.7,78.7,366z M492,454h-7.6c-1.4,0-2.5,1.1-2.5,2.5s1.1,2.5,2.5,2.5h7.6
	c1.4,0,2.5-1.1,2.5-2.5S493.4,454,492,454z M16.6,454H9c-1.4,0-2.5,1.1-2.5,2.5s1.1,2.5,2.5,2.5h7.6c1.4,0,2.5-1.1,2.5-2.5
	S18,454,16.6,454z M234.1,192.3v-12.6c0-0.9,0.4-1.7,1.2-2.1l10.1-6.3c0.8-0.5,1.9-0.5,2.7,0l10.1,6.3c0.7,0.5,1.2,1.3,1.2,2.1v12.6
	c0,0.9-0.4,1.7-1.2,2.1l-10.1,6.3c-0.4,0.3-0.9,0.4-1.3,0.4s-0.9-0.1-1.3-0.4l-10.1-6.3C234.5,194,234.1,193.2,234.1,192.3z
	 M239.1,190.9l7.6,4.7l7.6-4.7v-9.8l-7.6-4.7l-7.6,4.7V190.9z M191.1,309.4C191.1,309.4,191.1,309.4,191.1,309.4l12.6-55.7
	c0.3-1.2,1.3-2,2.5-2s2.2,0.8,2.5,2l3.2,14l14.2-28.5l-7.2-60.5c-0.1-0.4,0-0.9,0.2-1.3l25.1-57.7v-12.1c0-1.4,1.1-2.5,2.5-2.5
	s2.5,1.1,2.5,2.5v12.1l25.1,57.7c0.2,0.4,0.2,0.9,0.2,1.3l-7.2,60.5l14.2,28.5l3.2-14c0.3-1.2,1.3-2,2.5-2s2.2,0.8,2.5,2l12.6,55.6
	c0,0,0,0,0,0c0,0.2,0.1,0.4,0.1,0.5c0,0,0,0,0,0c0,0,0,0.1,0,0.1c0,0.1,0,0.3-0.1,0.4c0,0.1,0,0.1-0.1,0.2c0,0.1-0.1,0.2-0.1,0.3
	c0,0.1-0.1,0.1-0.1,0.2c-0.1,0.1-0.1,0.2-0.2,0.3c0,0,0,0.1-0.1,0.1l-12.6,15.2c-0.5,0.6-1.2,0.9-1.9,0.9c-0.8,0-1.5-0.3-1.9-0.9
	l-12.6-15.2c0,0,0-0.1-0.1-0.1c-0.1-0.1-0.1-0.2-0.2-0.3c0-0.1-0.1-0.1-0.1-0.2c-0.1-0.1-0.1-0.2-0.1-0.3c0-0.1,0-0.1-0.1-0.2
	c0-0.1,0-0.3-0.1-0.4c0,0,0-0.1,0-0.1c0,0,0,0,0,0c0-0.2,0-0.4,0.1-0.5c0,0,0,0,0,0l2-8.8l-15.6-13.4H235l-15.6,13.4l2,8.8
	c0,0,0,0,0,0c0,0.2,0.1,0.4,0.1,0.5c0,0,0,0,0,0c0,0,0,0.1,0,0.1c0,0.2,0,0.3-0.1,0.4c0,0.1,0,0.1,0,0.2c0,0.1-0.1,0.2-0.1,0.4
	c0,0.1-0.1,0.1-0.1,0.2c-0.1,0.1-0.1,0.2-0.2,0.3c0,0,0,0.1-0.1,0.1l-12.6,15.2c-0.5,0.6-1.2,0.9-1.9,0.9s-1.5-0.3-1.9-0.9
	l-12.6-15.2c0,0,0-0.1-0.1-0.1c-0.1-0.1-0.1-0.2-0.2-0.3c0-0.1-0.1-0.1-0.1-0.2c-0.1-0.1-0.1-0.2-0.1-0.4c0-0.1,0-0.1,0-0.2
	c0-0.1,0-0.3-0.1-0.4c0,0,0-0.1,0-0.1c0,0,0,0,0,0C191.1,309.7,191.1,309.5,191.1,309.4z M213.5,312.4H199l7.2,8.7L213.5,312.4z
	 M294.4,312.4h-14.5l7.2,8.7L294.4,312.4z M277.7,307.4h19l-9.5-41.7L277.7,307.4z M266.2,248.3l-4.2,35.3l13.3,11.4l4.4-19.5
	L266.2,248.3z M224,178.8l7.2,60.5c0,0,0,0,0,0l5.1,42.8h20.8l5.1-42.8c0,0,0,0,0,0l7.2-60.5l-22.7-52.2L224,178.8z M213.7,275.5
	l4.4,19.5l13.3-11.4l-4.2-35.3L213.7,275.5z M196.8,307.4h19l-9.5-41.7L196.8,307.4z M443.2,425.5L428,440.7
	c-0.5,0.5-1.1,0.7-1.8,0.7s-1.3-0.2-1.8-0.7l-15.2-15.2c-0.8-0.8-1-2.1-0.4-3.1l7.6-12.6c0.4-0.7,1.1-1.1,1.9-1.2
	c0.8-0.1,1.5,0.2,2.1,0.7l5.8,5.8l5.8-5.8c0.6-0.6,1.3-0.8,2.1-0.7c0.8,0.1,1.5,0.5,1.9,1.2l7.6,12.6
	C444.2,423.4,444,424.7,443.2,425.5z M438.2,423.3l-4.9-8.2l-5.3,5.3c-1,1-2.6,1-3.6,0l-5.3-5.3l-4.9,8.2l12,12L438.2,423.3z
	 M476.4,409.7c0.5,0.7,0.6,1.6,0.2,2.4L464,442.4c-0.4,0.9-1.3,1.6-2.3,1.6h-8.5l-1.3,10.1h19.9c1.4,0,2.5,1.1,2.5,2.5
	s-1.1,2.5-2.5,2.5h-440c-1.4,0-2.5-1.1-2.5-2.5s1.1-2.5,2.5-2.5H46l-11.6-37.2c-0.2-0.8-0.1-1.6,0.4-2.3s1.2-1,2-1h7.6v-5.1h-5.1
	c-1.4,0-2.5-1.1-2.5-2.5s1.1-2.5,2.5-2.5h5.1v-10.1h-5.1c-1.4,0-2.5-1.1-2.5-2.5s1.1-2.5,2.5-2.5h5.1v-10.1h-5.1
	c-1.4,0-2.5-1.1-2.5-2.5s1.1-2.5,2.5-2.5h5.1v-8.6l-3.7-1.8c-1.2-0.6-1.8-2.1-1.1-3.4c0.6-1.2,2.1-1.8,3.4-1.1l3.7,1.8l6.5-4.9l-3-3
	c-1-1-1-2.6,0-3.6c1-1,2.6-1,3.6,0l3.5,3.5l8.4-6.3c0.9-0.7,2.1-0.7,3,0l8.4,6.3l3.5-3.5c1-1,2.6-1,3.6,0c1,1,1,2.6,0,3.6l-3,3
	l6.5,4.9l3.7-1.8c1.3-0.6,2.8-0.1,3.4,1.1c0.6,1.2,0.1,2.8-1.1,3.4l-3.7,1.8v8.6H95c1.4,0,2.5,1.1,2.5,2.5s-1.1,2.5-2.5,2.5h-5.1
	v10.1H95c1.4,0,2.5,1.1,2.5,2.5s-1.1,2.5-2.5,2.5h-5.1v10.1H95c1.4,0,2.5,1.1,2.5,2.5s-1.1,2.5-2.5,2.5h-5.1v5.1h7.6
	c0.8,0,1.6,0.4,2,1s0.6,1.5,0.4,2.3L88.3,454h128.8l8.3-22.8H125.3c-1.4,0-2.5-1.1-2.5-2.5v-172c0-1.4,1.1-2.5,2.5-2.5h63.2
	c1.4,0,2.5,1.1,2.5,2.5s-1.1,2.5-2.5,2.5h-60.7v134h237.7v-134h-55.6c-1.4,0-2.5-1.1-2.5-2.5s1.1-2.5,2.5-2.5h58.2
	c1.4,0,2.5,1.1,2.5,2.5v172c0,1.4-1.1,2.5-2.5,2.5H268l8.3,22.8h124.3l-7.2-57.8c-0.1-0.7,0.1-1.4,0.6-2c0.5-0.5,1.2-0.9,1.9-0.9
	h60.7c0.7,0,1.4,0.3,1.9,0.9c0.5,0.5,0.7,1.3,0.6,2l-1.5,12.3h16.7C475.1,408.5,475.9,409,476.4,409.7z M127.9,426.2H229h35.4h101.2
	v-27.8H127.9V426.2z M222.5,454h48.4l-8.3-22.8h-31.9L222.5,454z M49.5,413.6h35.4v-49.3L67.2,351l-17.7,13.3V413.6z M40.3,418.6
	l1.6,5.1h50.7l1.6-5.1h-6.7H46.9H40.3z M51.3,454H83l7.9-25.3H43.4L51.3,454z M446.8,454l7-55.6h-55l7,55.6H446.8z M470.5,413.6
	h-13.6l-3.2,25.3h6.2L470.5,413.6z M249.2,337.7c0-1.4-1.1-2.5-2.5-2.5s-2.5,1.1-2.5,2.5v15.2c0,1.4,1.1,2.5,2.5,2.5
	s2.5-1.1,2.5-2.5V337.7z M249.2,363c0-1.4-1.1-2.5-2.5-2.5s-2.5,1.1-2.5,2.5v5.1c0,1.4,1.1,2.5,2.5,2.5s2.5-1.1,2.5-2.5V363z
	 M259.4,332.7c0-1.4-1.1-2.5-2.5-2.5s-2.5,1.1-2.5,2.5v15.2c0,1.4,1.1,2.5,2.5,2.5s2.5-1.1,2.5-2.5V332.7z M259.4,358
	c0-1.4-1.1-2.5-2.5-2.5s-2.5,1.1-2.5,2.5v5.1c0,1.4,1.1,2.5,2.5,2.5s2.5-1.1,2.5-2.5V358z M239.1,332.7c0-1.4-1.1-2.5-2.5-2.5
	s-2.5,1.1-2.5,2.5v15.2c0,1.4,1.1,2.5,2.5,2.5s2.5-1.1,2.5-2.5V332.7z M239.1,358c0-1.4-1.1-2.5-2.5-2.5s-2.5,1.1-2.5,2.5v5.1
	c0,1.4,1.1,2.5,2.5,2.5s2.5-1.1,2.5-2.5V358z M246.7,375.7c-1.4,0-2.5,1.1-2.5,2.5v2.5c0,1.4,1.1,2.5,2.5,2.5s2.5-1.1,2.5-2.5v-2.5
	C249.2,376.8,248.1,375.7,246.7,375.7z M256.8,370.6c-1.4,0-2.5,1.1-2.5,2.5v2.5c0,1.4,1.1,2.5,2.5,2.5s2.5-1.1,2.5-2.5v-2.5
	C259.4,371.7,258.2,370.6,256.8,370.6z M236.6,370.6c-1.4,0-2.5,1.1-2.5,2.5v2.5c0,1.4,1.1,2.5,2.5,2.5s2.5-1.1,2.5-2.5v-2.5
	C239.1,371.7,238,370.6,236.6,370.6z M208.8,337.7c0-1.4-1.1-2.5-2.5-2.5s-2.5,1.1-2.5,2.5v15.2c0,1.4,1.1,2.5,2.5,2.5
	s2.5-1.1,2.5-2.5V337.7z M208.8,363c0-1.4-1.1-2.5-2.5-2.5s-2.5,1.1-2.5,2.5v5.1c0,1.4,1.1,2.5,2.5,2.5s2.5-1.1,2.5-2.5V363z
	 M218.9,332.7c0-1.4-1.1-2.5-2.5-2.5s-2.5,1.1-2.5,2.5v15.2c0,1.4,1.1,2.5,2.5,2.5s2.5-1.1,2.5-2.5V332.7z M218.9,358
	c0-1.4-1.1-2.5-2.5-2.5s-2.5,1.1-2.5,2.5v5.1c0,1.4,1.1,2.5,2.5,2.5s2.5-1.1,2.5-2.5V358z M198.7,332.7c0-1.4-1.1-2.5-2.5-2.5
	s-2.5,1.1-2.5,2.5v15.2c0,1.4,1.1,2.5,2.5,2.5s2.5-1.1,2.5-2.5V332.7z M198.7,358c0-1.4-1.1-2.5-2.5-2.5s-2.5,1.1-2.5,2.5v5.1
	c0,1.4,1.1,2.5,2.5,2.5s2.5-1.1,2.5-2.5V358z M206.2,375.7c-1.4,0-2.5,1.1-2.5,2.5v2.5c0,1.4,1.1,2.5,2.5,2.5s2.5-1.1,2.5-2.5v-2.5
	C208.8,376.8,207.6,375.7,206.2,375.7z M216.4,370.6c-1.4,0-2.5,1.1-2.5,2.5v2.5c0,1.4,1.1,2.5,2.5,2.5s2.5-1.1,2.5-2.5v-2.5
	C218.9,371.7,217.8,370.6,216.4,370.6z M196.1,370.6c-1.4,0-2.5,1.1-2.5,2.5v2.5c0,1.4,1.1,2.5,2.5,2.5s2.5-1.1,2.5-2.5v-2.5
	C198.7,371.7,197.5,370.6,196.1,370.6z M289.7,337.7c0-1.4-1.1-2.5-2.5-2.5s-2.5,1.1-2.5,2.5v15.2c0,1.4,1.1,2.5,2.5,2.5
	s2.5-1.1,2.5-2.5V337.7z M289.7,363c0-1.4-1.1-2.5-2.5-2.5s-2.5,1.1-2.5,2.5v5.1c0,1.4,1.1,2.5,2.5,2.5s2.5-1.1,2.5-2.5V363z
	 M299.8,332.7c0-1.4-1.1-2.5-2.5-2.5s-2.5,1.1-2.5,2.5v15.2c0,1.4,1.1,2.5,2.5,2.5s2.5-1.1,2.5-2.5V332.7z M299.8,358
	c0-1.4-1.1-2.5-2.5-2.5s-2.5,1.1-2.5,2.5v5.1c0,1.4,1.1,2.5,2.5,2.5s2.5-1.1,2.5-2.5V358z M279.6,332.7c0-1.4-1.1-2.5-2.5-2.5
	s-2.5,1.1-2.5,2.5v15.2c0,1.4,1.1,2.5,2.5,2.5s2.5-1.1,2.5-2.5V332.7z M279.6,358c0-1.4-1.1-2.5-2.5-2.5s-2.5,1.1-2.5,2.5v5.1
	c0,1.4,1.1,2.5,2.5,2.5s2.5-1.1,2.5-2.5V358z M287.2,375.7c-1.4,0-2.5,1.1-2.5,2.5v2.5c0,1.4,1.1,2.5,2.5,2.5s2.5-1.1,2.5-2.5v-2.5
	C289.7,376.8,288.6,375.7,287.2,375.7z M297.3,370.6c-1.4,0-2.5,1.1-2.5,2.5v2.5c0,1.4,1.1,2.5,2.5,2.5s2.5-1.1,2.5-2.5v-2.5
	C299.8,371.7,298.7,370.6,297.3,370.6z M277.1,370.6c-1.4,0-2.5,1.1-2.5,2.5v2.5c0,1.4,1.1,2.5,2.5,2.5s2.5-1.1,2.5-2.5v-2.5
	C279.6,371.7,278.4,370.6,277.1,370.6z"/>
</svg>
