<?xml version="1.0" encoding="utf-8"?>
<!-- Generator: Adobe Illustrator 21.0.0, SVG Export Plug-In . SVG Version: 6.00 Build 0)  -->
<svg version="1.1"
	 id="svg32" inkscape:export-filename="C:\Users\Estudiantes\Desktop\isotipoPlano40.svg.png" inkscape:export-xdpi="20.320002" inkscape:export-ydpi="20.320002" inkscape:version="0.92.3 (2405546, 2018-03-11)" sodipodi:docname="isotipoPlano.svg" xmlns:cc="http://creativecommons.org/ns#" xmlns:dc="http://purl.org/dc/elements/1.1/" xmlns:inkscape="http://www.inkscape.org/namespaces/inkscape" xmlns:rdf="http://www.w3.org/1999/02/22-rdf-syntax-ns#" xmlns:sodipodi="http://sodipodi.sourceforge.net/DTD/sodipodi-0.dtd" xmlns:svg="http://www.w3.org/2000/svg"
	 xmlns="http://www.w3.org/2000/svg" xmlns:xlink="http://www.w3.org/1999/xlink" x="0px" y="0px" viewBox="0 0 141.7 141.7"
	 style="enable-background:new 0 0 141.7 141.7;" xml:space="preserve">
<style type="text/css">
	.st0{fill:#A80000;}
	.st1{fill:#FCD813;}
	.st2{font-family:'Russian';}
	.st3{font-size:134.3805px;}
</style>
<sodipodi:namedview  bordercolor="#666666" borderopacity="1.0" id="base" inkscape:current-layer="g3764" inkscape:cx="137.62561" inkscape:cy="97.747918" inkscape:document-units="mm" inkscape:pageopacity="0.0" inkscape:pageshadow="2" inkscape:window-height="988" inkscape:window-maximized="1" inkscape:window-width="1680" inkscape:window-x="-8" inkscape:window-y="-8" inkscape:zoom="1.4142136" pagecolor="#ffffff" showgrid="false">
	</sodipodi:namedview>
<g id="layer1" transform="translate(-99.531236,-108.78882)" inkscape:groupmode="layer" inkscape:label="Capa 1">
	<g id="g3764" inkscape:label="Clip">
		<g id="g830">
			<path id="rect123" class="st0" d="M116.5,108.8h107.7c9.4,0,17,7.6,17,17v107.7c0,9.4-7.6,17-17,17H116.5c-9.4,0-17-7.6-17-17
				V125.8C99.5,116.4,107.1,108.8,116.5,108.8z"/>
			<a id="a107-8" transform="translate(-3.2371189,-1.2708091)">
				<text transform="matrix(1.9112 0 0 1 113.0813 236.6378)" class="st1 st2 st3">Z</text>
				<text transform="matrix(1.9112 0 0 1 113.0813 236.6378)" class="st1 st2 st3">Z</text>
			</a>
			<path id="rect4602" class="st1" d="M119.2,239.7h103.2c1.3,0,2.3,0.6,2.3,1.3v1.7c0,0.7-1,1.3-2.3,1.3H119.2
				c-1.3,0-2.3-0.6-2.3-1.3V241C116.9,240.3,117.9,239.7,119.2,239.7z"/>
		</g>
	</g>
</g>
</svg>
